<!--?xml version="1.0" standalone="no"?-->
              <svg id="sw-js-blob-svg" viewBox="0 0 100 100" xmlns="http://www.w3.org/2000/svg" version="1.1">
                    <defs> 
                        <linearGradient id="sw-gradient" x1="0" x2="1" y1="1" y2="0">
                            <stop id="stop1" stop-color="rgba(99, 102, 241, 0.91)" offset="0%"></stop>
                            <stop id="stop2" stop-color="rgba(236, 72, 153, 0.92)" offset="100%"></stop>
                        </linearGradient>
                    </defs>
                <path fill="url(#sw-gradient)" d="M23.4,-30.7C31.1,-26.6,38.7,-20.8,41.5,-13.2C44.4,-5.6,42.7,3.8,38.7,11.5C34.7,19.1,28.6,25,21.8,29.8C15,34.6,7.5,38.2,-1.1,39.8C-9.7,41.4,-19.5,40.8,-25.5,35.8C-31.6,30.8,-34,21.3,-36.5,12.2C-38.9,3.1,-41.5,-5.6,-40.2,-14.1C-38.9,-22.6,-33.7,-31,-26.4,-35.3C-19.1,-39.6,-9.5,-39.8,-0.8,-38.6C7.8,-37.5,15.7,-34.9,23.4,-30.7Z" width="100%" height="100%" transform="translate(50 50)" stroke-width="0" style="transition: 0.3s;"></path>
              </svg>