<svg xmlns="http://www.w3.org/2000/svg" version="1.1" xmlns:xlink="http://www.w3.org/1999/xlink" xmlns:svgjs="http://svgjs.dev/svgjs" width="1374" height="700" preserveAspectRatio="none" viewBox="0 0 1374 700">
    <g mask="url(&quot;#SvgjsMask1364&quot;)" fill="none">
        <path d="M1258.41,511.717C1278.972,511.782,1296.947,498.321,1306.514,480.12C1315.448,463.124,1312.636,443.209,1303.218,426.477C1293.587,409.367,1278.028,395.457,1258.41,394.658C1237.469,393.805,1217.026,404.255,1206.803,422.551C1196.799,440.456,1200.552,462.068,1210.826,479.819C1221.078,497.532,1237.944,511.653,1258.41,511.717" fill="rgba(79, 70, 229, 0.29)" class="triangle-float2"></path>
        <path d="M148.591,332.763C209.377,335.348,274.458,316.915,304.353,263.925C333.879,211.589,314.548,147.441,281.432,97.3C251.939,52.645,202.106,27.952,148.591,28.085C95.326,28.217,44.333,52.308,16.885,97.956C-11.403,145.001,-12.653,203.707,14.202,251.585C41.643,300.507,92.55,330.38,148.591,332.763" fill="rgba(79, 70, 229, 0.29)" class="triangle-float1"></path>
        <path d="M764.342,452.143C801.59,453.346,839.929,439.637,858.55,407.356C877.16,375.093,870.384,334.692,850.116,303.444C831.605,274.905,798.345,261.18,764.342,262.113C732.037,263,703.061,280.275,686.355,307.939C669.02,336.645,664.162,372.097,680.114,401.594C696.809,432.464,729.265,451.01,764.342,452.143" fill="rgba(79, 70, 229, 0.29)" class="triangle-float3"></path>
        <path d="M164.524,149.021C195.977,149.141,229.463,140.442,244.863,113.017C260.033,86.001,250.033,52.979,232.982,27.109C217.776,4.038,192.146,-8.185,164.524,-8.875C135.458,-9.601,105.782,-0.803,89.873,23.533C72.475,50.147,68.979,85.084,85.235,112.41C101.187,139.225,133.323,148.902,164.524,149.021" fill="rgba(79, 70, 229, 0.29)" class="triangle-float3"></path>
        <path d="M590.909,655.598C661.575,662.139,741.421,655.115,780.323,595.759C821.966,532.22,811.611,446.503,769.302,383.406C731.163,326.528,659.262,309.095,590.909,313.281C530.323,316.991,475.711,349.825,446.73,403.159C419.005,454.182,425.037,515.116,453.836,565.54C482.896,616.421,532.563,650.198,590.909,655.598" fill="rgba(79, 70, 229, 0.29)" class="triangle-float3"></path>
        <path d="M1216.248,540.696C1270.186,542.936,1324.044,517.888,1350.117,470.618C1375.46,424.671,1361.584,370.009,1335.511,324.472C1309.236,278.582,1269.005,240.413,1216.248,236.814C1156.97,232.77,1092.383,253.277,1065.023,306.019C1038.994,356.196,1069.724,412.73,1100.343,460.246C1127.646,502.617,1165.885,538.605,1216.248,540.696" fill="rgba(79, 70, 229, 0.29)" class="triangle-float1"></path>
        <path d="M1397.51,925.661C1456.166,926.736,1498.824,875.98,1526.785,824.406C1553.189,775.702,1563.112,718.119,1536.315,669.63C1508.703,619.666,1454.566,588.636,1397.51,590.478C1343.259,592.23,1298.79,630.14,1273.409,678.119C1249.733,722.874,1253.499,774.551,1276.191,819.813C1301.97,871.234,1339.999,924.607,1397.51,925.661" fill="rgba(79, 70, 229, 0.29)" class="triangle-float1"></path>
        <path d="M242.566,696.953C277.262,695.585,299.466,665.079,318.078,635.766C338.826,603.089,366.141,565.505,347.605,531.525C328.706,496.879,282.023,496.565,242.566,497.336C204.946,498.071,163.709,503.198,144.401,535.493C124.732,568.393,136.073,609.403,155.986,642.156C175.003,673.436,205.987,698.395,242.566,696.953" fill="rgba(79, 70, 229, 0.29)" class="triangle-float1"></path>
        <path d="M56.58,343.193C100.028,341.325,134.04,308.942,154.113,270.364C172.544,234.94,173.746,192.49,152.623,158.602C132.602,126.481,94.43,113.957,56.58,113.887C18.584,113.817,-18.629,126.885,-40.08,158.246C-64.749,194.312,-76.89,240.7,-56.65,279.426C-35.145,320.572,10.196,345.188,56.58,343.193" fill="rgba(79, 70, 229, 0.29)" class="triangle-float1"></path>
    </g>
    <defs>
        <mask id="SvgjsMask1364">
            <rect width="1374" height="700" fill="#ffffff"></rect>
        </mask>
        <style>
            @keyframes float1 {
                    0%{transform: translate(0, 0)}
                    50%{transform: translate(-10px, 0)}
                    100%{transform: translate(0, 0)}
                }

                .triangle-float1 {
                    animation: float1 5s infinite;
                }

                @keyframes float2 {
                    0%{transform: translate(0, 0)}
                    50%{transform: translate(-5px, -5px)}
                    100%{transform: translate(0, 0)}
                }

                .triangle-float2 {
                    animation: float2 4s infinite;
                }

                @keyframes float3 {
                    0%{transform: translate(0, 0)}
                    50%{transform: translate(0, -10px)}
                    100%{transform: translate(0, 0)}
                }

                .triangle-float3 {
                    animation: float3 6s infinite;
                }
        </style>
    </defs>
</svg>