<svg xmlns="http://www.w3.org/2000/svg" version="1.1" xmlns:xlink="http://www.w3.org/1999/xlink" xmlns:svgjs="http://svgjs.dev/svgjs" width="1374" height="700" preserveAspectRatio="none" viewBox="0 0 1374 700">
    <g mask="url(&quot;#SvgjsMask1400&quot;)" fill="none">
        <path d="M380.718,713.76C413.633,715.434,452.082,714.051,468.529,685.49C484.959,656.959,466.456,623.277,448.84,595.462C432.842,570.202,410.525,549.198,380.718,546.844C346.269,544.124,307.986,552.901,291.006,582.997C274.214,612.76,287.793,649.102,307.126,677.281C323.727,701.479,351.411,712.269,380.718,713.76" fill="rgba(116, 110, 215, 0.24)" class="triangle-float1"></path>
        <path d="M1399.937,550.037C1443.483,548.786,1481.883,525.805,1505.679,489.314C1532.279,448.524,1551.078,397.227,1527.294,354.733C1503.132,311.565,1449.406,300.102,1399.937,300.388C1351.087,300.671,1300.18,314.267,1275.105,356.192C1249.478,399.04,1256.083,453.734,1283.115,495.71C1308.036,534.409,1353.927,551.359,1399.937,550.037" fill="rgba(116, 110, 215, 0.24)" class="triangle-float1"></path>
        <path d="M821.926,127.618C841.939,127.506,864.383,127.528,875.355,110.791C887.099,92.875,882.739,69.568,872.207,50.914C861.471,31.897,843.764,16.201,821.926,16.155C800.022,16.109,782.15,31.687,771.275,50.7C760.487,69.561,755.499,93.249,767.449,111.396C778.617,128.356,801.619,127.732,821.926,127.618" fill="rgba(116, 110, 215, 0.24)" class="triangle-float2"></path>
        <path d="M878.36,623.411C921.071,624.29,955.604,591.883,975.955,554.322C995.265,518.683,996.863,476.354,977.261,440.875C956.983,404.173,920.285,378.41,878.36,377.682C835.212,376.933,793.417,399.141,773.326,437.334C754.367,473.377,767.464,514.978,787.483,550.443C807.951,586.703,836.731,622.554,878.36,623.411" fill="rgba(116, 110, 215, 0.24)" class="triangle-float1"></path>
        <path d="M165.112,329.503C210.251,330.82,252.681,306.804,275.421,267.789C298.321,228.5,297.821,179.992,275.274,140.499C252.533,100.668,210.978,74.602,165.112,74.578C119.205,74.554,76.335,99.868,54.746,140.382C34.291,178.768,43.494,224.093,65.417,261.66C87.131,298.869,122.048,328.246,165.112,329.503" fill="rgba(116, 110, 215, 0.24)" class="triangle-float1"></path>
        <path d="M1085.83,952.648C1146.629,948.734,1195.839,910.779,1228.629,859.431C1264.835,802.734,1297.316,732.562,1263.517,674.398C1229.812,616.396,1152.877,611.471,1085.83,613.689C1023.717,615.744,962.01,633.898,927.4,685.516C888.472,743.575,871.527,820.004,907.185,880.127C942.323,939.373,1017.09,957.074,1085.83,952.648" fill="rgba(116, 110, 215, 0.24)" class="triangle-float2"></path>
        <path d="M923.307,688.915C978.837,692.032,1029.092,656.551,1056.342,608.067C1083.046,560.555,1081.11,503.079,1054.482,455.525C1027.194,406.793,979.137,368.909,923.307,370.482C869.578,371.996,827.937,414.28,804.337,462.572C783.595,505.014,791.872,552.639,813.851,594.454C837.884,640.177,871.734,686.02,923.307,688.915" fill="rgba(116, 110, 215, 0.24)" class="triangle-float2"></path>
    </g>
    <defs>
        <mask id="SvgjsMask1400">
            <rect width="1374" height="700" fill="#ffffff"></rect>
        </mask>
        <style>
            @keyframes float1 {
                    0%{transform: translate(0, 0)}
                    50%{transform: translate(-10px, 0)}
                    100%{transform: translate(0, 0)}
                }

                .triangle-float1 {
                    animation: float1 5s infinite;
                }

                @keyframes float2 {
                    0%{transform: translate(0, 0)}
                    50%{transform: translate(-5px, -5px)}
                    100%{transform: translate(0, 0)}
                }

                .triangle-float2 {
                    animation: float2 4s infinite;
                }

                @keyframes float3 {
                    0%{transform: translate(0, 0)}
                    50%{transform: translate(0, -10px)}
                    100%{transform: translate(0, 0)}
                }

                .triangle-float3 {
                    animation: float3 6s infinite;
                }
        </style>
    </defs>
</svg>