<svg xmlns="http://www.w3.org/2000/svg" version="1.1" xmlns:xlink="http://www.w3.org/1999/xlink" xmlns:svgjs="http://svgjs.dev/svgjs" width="1274" height="700" preserveAspectRatio="none" viewBox="0 0 1274 700">
    <g mask="url(&quot;#SvgjsMask1478&quot;)" fill="none">
        <path d="M590.135,151.186C621.439,152.699,654.773,145.168,671.644,118.755C689.627,90.601,686.406,54.671,670.574,25.254C653.788,-5.935,625.528,-34.054,590.135,-32.693C556.231,-31.389,534.375,0.443,519.742,31.054C507.347,56.985,506.686,86.689,521.216,111.486C535.582,136.003,561.752,149.815,590.135,151.186" fill="rgba(116, 110, 215, 0.24)" class="triangle-float3"></path>
        <path d="M831.662,92.41C852.276,93.132,872.297,84.102,883.351,66.687C895.243,47.952,897.661,24.343,887.335,4.701C876.283,-16.322,855.413,-31.771,831.662,-31.632C808.115,-31.494,787.333,-15.864,777.103,5.345C768.009,24.199,774.772,45.535,785.887,63.272C796.181,79.699,812.288,91.731,831.662,92.41" fill="rgba(116, 110, 215, 0.24)" class="triangle-float3"></path>
        <path d="M923.149,486.37C973.569,484.901,1011.655,447.16,1037.859,404.059C1065.437,358.698,1084.811,305.569,1062.297,257.494C1036.476,202.359,984.029,158.649,923.149,159.119C862.888,159.585,814.781,205.793,787.675,259.616C763.293,308.029,768.444,364.565,796.245,411.099C823.281,456.352,870.457,487.905,923.149,486.37" fill="rgba(116, 110, 215, 0.24)" class="triangle-float2"></path>
        <path d="M86.949,372.136C110.185,372.512,129.597,355.528,140.273,334.886C150.094,315.898,147.161,294.005,137.12,275.133C126.303,254.804,109.912,236.4,86.949,234.666C61.093,232.714,33.494,243.334,21.684,266.418C10.551,288.179,23.695,312.405,36.536,333.205C48.49,352.568,64.196,371.767,86.949,372.136" fill="rgba(116, 110, 215, 0.24)" class="triangle-float1"></path>
        <path d="M40.338,226.974C87.635,224.812,123.351,186.762,143.666,143.996C161.14,107.209,153.848,65.83,133.694,30.441C113.286,-5.393,81.568,-36.651,40.338,-37.44C-2.033,-38.251,-36.783,-9.082,-59.416,26.747C-84.084,65.796,-101.353,112.913,-80.757,154.254C-58.253,199.424,-10.074,229.278,40.338,226.974" fill="rgba(116, 110, 215, 0.24)" class="triangle-float1"></path>
        <path d="M1311.596,406.644C1365.074,404.456,1405.868,364.828,1432.78,318.563C1459.882,271.971,1477.941,214.782,1450.016,168.679C1422.763,123.686,1364.199,118.72,1311.596,118.493C1258.436,118.264,1200.46,123.166,1171.093,167.478C1139.167,215.65,1142.656,279.404,1171.929,329.233C1200.826,378.423,1254.594,408.976,1311.596,406.644" fill="rgba(116, 110, 215, 0.24)" class="triangle-float1"></path>
        <path d="M663.161,810.861C729.323,808.853,779.835,758.522,812.181,700.771C843.652,644.583,856.923,577.222,825.508,521.003C793.416,463.571,728.931,432.462,663.161,434.088C600.118,435.647,546.566,474.61,514.147,528.701C480.652,584.587,467.176,652.706,497.603,710.32C529.92,771.512,593.992,812.961,663.161,810.861" fill="rgba(116, 110, 215, 0.24)" class="triangle-float3"></path>
    </g>
    <defs>
        <mask id="SvgjsMask1478">
            <rect width="1274" height="700" fill="#ffffff"></rect>
        </mask>
        <style>
            @keyframes float1 {
                    0%{transform: translate(0, 0)}
                    50%{transform: translate(-10px, 0)}
                    100%{transform: translate(0, 0)}
                }

                .triangle-float1 {
                    animation: float1 5s infinite;
                }

                @keyframes float2 {
                    0%{transform: translate(0, 0)}
                    50%{transform: translate(-5px, -5px)}
                    100%{transform: translate(0, 0)}
                }

                .triangle-float2 {
                    animation: float2 4s infinite;
                }

                @keyframes float3 {
                    0%{transform: translate(0, 0)}
                    50%{transform: translate(0, -10px)}
                    100%{transform: translate(0, 0)}
                }

                .triangle-float3 {
                    animation: float3 6s infinite;
                }
        </style>
    </defs>
</svg>