<svg xmlns="http://www.w3.org/2000/svg" version="1.1" xmlns:xlink="http://www.w3.org/1999/xlink" xmlns:svgjs="http://svgjs.dev/svgjs" width="1240" height="560" preserveAspectRatio="none" viewBox="0 0 1240 560">
    <g mask="url(&quot;#SvgjsMask1023&quot;)" fill="none">
        <rect width="1440" height="560" x="0" y="0" fill="rgba(26, 26, 67, 1)"></rect>
        <path d="M0,303.393C59.154,296.091,118.805,294.789,171.254,266.476C226.444,236.683,275.68,194.767,304.454,139.039C333.996,81.823,332.593,16.419,333.607,-47.965C334.799,-123.683,350.458,-204.819,310.885,-269.383C269.363,-337.127,196.606,-392.207,117.576,-400.426C40.691,-408.422,-22.748,-346.78,-91.382,-311.218C-146.599,-282.608,-197.076,-251.859,-245.195,-212.463C-303.027,-165.115,-388.938,-131.416,-401.077,-57.666C-413.189,15.924,-338.437,72.758,-302.935,138.346C-270.249,198.733,-261.065,279.549,-200.768,312.401C-140.726,345.114,-67.86,311.77,0,303.393" fill="#151536"></path>
        <path d="M1440 1176.8029999999999C1552.791 1164.5439999999999 1637.647 1073.647 1719.84 995.4390000000001 1789.743 928.925 1843.742 850.233 1878.007 760.031 1910.6 674.231 1922.859 583.293 1910.976 492.284 1898.981 400.416 1873.31 307.038 1810.025 239.372 1747.766 172.803 1654.452 153.062 1567.666 125.209 1478.661 96.644 1389.179 56.34699999999998 1297.563 74.90199999999999 1202.516 94.15199999999999 1132.231 166.76600000000002 1057.472 228.53699999999998 968.267 302.245 832.899 355.826 818.598 470.656 804.255 585.824 938.108 661.727 990.633 765.219 1040.205 862.893 1037.357 986.8589999999999 1118.13 1060.84 1203.965 1139.458 1324.284 1189.38 1440 1176.8029999999999" fill="#1f1f50"></path>
    </g>
    <defs>
        <mask id="SvgjsMask1023">
            <rect width="1440" height="560" fill="#ffffff"></rect>
        </mask>
    </defs>
</svg>